<svg width="131" height="132" viewBox="0 0 131 132" fill="none" xmlns="http://www.w3.org/2000/svg">
<path fill-rule="evenodd" clip-rule="evenodd" d="M95.0459 0H35.365V34.2612L0 34.2612L-2.60874e-06 93.9422H35.365V129.861H95.0459V93.9422H130.967V34.2612L95.0459 34.2612V0Z" fill="#B54A57"/>
<path d="M42.4286 68.4246C45.4419 68.4246 47.8846 66.2453 47.8846 63.557C47.8846 60.8687 45.4419 58.6895 42.4286 58.6895C39.4154 58.6895 36.9727 60.8687 36.9727 63.557C36.9727 66.2453 39.4154 68.4246 42.4286 68.4246Z" fill="#EEEEEE"/>
<path d="M89.3221 77.1587C91.4038 76.9026 92.8107 74.4133 92.4644 71.5985C92.1181 68.7838 90.1498 66.7096 88.0681 66.9657C85.9864 67.2218 84.5795 69.7112 84.9258 72.5259C85.2721 75.3407 87.2404 77.4148 89.3221 77.1587Z" fill="#EEEEEE"/>
<path d="M22.6881 80.7807C23.223 87.1995 30.1767 85.8087 28.8394 97.309C27.4487 109.077 45.7422 110.361 48.2027 107.579C56.4402 98.3788 59.1681 90.3554 52.8563 76.3945C46.0631 61.4709 21.8323 69.6548 22.6881 80.7807Z" fill="#EEEEEE"/>
<path d="M88.9078 77.9457C85.8054 76.6619 86.0729 76.9829 83.8798 80.6736C82.3286 83.2946 78.1029 94.2066 81.5262 98.0578C81.5262 98.0578 89.8172 102.711 93.6684 99.0741C97.5197 95.4368 100.248 93.8321 92.1707 83.9365C92.9196 83.7226 93.9893 79.9783 88.9078 77.9457Z" fill="#EEEEEE"/>
<path d="M89.6556 99.3416C88.4253 101.374 87.73 103.674 87.409 106.081C87.3021 106.67 87.3021 107.258 87.1951 107.9L87.1416 108.809L87.0881 109.719C87.0346 110.949 87.0346 112.179 87.0881 113.356C87.1416 115.816 87.409 118.277 87.7835 120.684C87.9974 121.914 88.2114 123.145 88.4788 124.321C88.5858 124.91 88.7463 125.498 88.9067 126.14C89.0672 126.728 89.2277 127.317 89.3882 127.852C89.8161 129.082 89.1207 130.366 87.9439 130.794C86.7137 131.222 85.4299 130.526 85.002 129.349C85.002 129.296 84.9485 129.189 84.9485 129.135C84.6276 127.798 84.3601 126.568 84.0927 125.284C83.8252 124 83.5578 122.77 83.3438 121.486C82.8624 118.919 82.4345 116.405 82.0601 113.784C82.0066 113.142 81.8996 112.5 81.7926 111.858C81.6856 111.216 81.6856 110.574 81.5787 109.879L81.4717 108.916L81.4182 107.9L81.2577 105.921C81.0438 103.246 80.9368 100.518 80.6693 97.5765V97.3625C80.4019 94.688 82.3275 92.3345 85.002 92.1205C87.6765 91.8531 90.03 93.7787 90.244 96.4532C90.4045 97.4695 90.1905 98.4858 89.6556 99.3416Z" fill="#EEEEEE"/>
<path d="M95.0558 99.9833C95.9651 102.444 96.8744 104.904 97.8907 107.311C98.8536 109.772 99.9234 112.125 101.047 114.532C102.17 116.94 103.293 119.293 104.523 121.593C105.754 123.893 107.037 126.247 108.428 128.386L108.482 128.44C108.963 129.189 108.749 130.205 107.947 130.686C107.251 131.114 106.289 130.954 105.807 130.312C104.096 128.119 102.598 125.926 101.1 123.679C99.6024 121.433 98.1582 119.133 96.8209 116.779C95.4837 114.426 94.1465 112.072 92.8627 109.665C91.579 107.258 90.4022 104.851 89.2254 102.39C88.4765 100.786 89.1184 98.86 90.7231 98.1111C92.3278 97.3623 94.2534 98.0042 95.0023 99.6089C94.9488 99.7693 95.0023 99.8763 95.0558 99.9833Z" fill="#EEEEEE"/>
<path d="M85.6491 79.4434C78.1606 77.9992 76.6094 100.304 76.6094 100.304" stroke="#EEEEEE" stroke-width="3.63386" stroke-miterlimit="10" stroke-linecap="round"/>
<path d="M86.1254 67.6222C80.9369 71.0455 78.6368 77.6248 81.1508 81.0481C83.7184 84.4715 90.565 74.4154 86.1254 67.6222Z" fill="#EEEEEE"/>
<path d="M25.8968 77.6785C18.3013 84.0972 21.3502 102.551 23.2223 104.958" stroke="#EEEEEE" stroke-width="5.4508" stroke-miterlimit="10" stroke-linecap="round"/>
<path d="M43.6035 107.419C48.3641 110.842 48.7385 126.086 49.1664 128.761" stroke="#EEEEEE" stroke-width="5.15282" stroke-miterlimit="10" stroke-linecap="round"/>
<path d="M36.0589 105.867C37.6636 111.751 36.9682 124.054 35.8984 129.403" stroke="#EEEEEE" stroke-width="5.15282" stroke-miterlimit="10" stroke-linecap="round"/>
<path d="M67.6205 111.537C70.5746 111.537 72.9694 109.142 72.9694 106.188C72.9694 103.234 70.5746 100.839 67.6205 100.839C64.6663 100.839 62.2715 103.234 62.2715 106.188C62.2715 109.142 64.6663 111.537 67.6205 111.537Z" fill="#EEEEEE"/>
<path d="M67.8854 112.393C65.5318 112.393 63.4992 113.142 63.0713 115.495L62.2689 120.096C61.7341 123.091 64.0341 125.766 67.083 125.766H68.3133C71.2017 125.766 73.4483 123.305 73.1274 120.417L72.6994 115.816C72.4855 113.356 70.3994 112.393 67.8854 112.393Z" fill="#EEEEEE"/>
<path d="M66.7078 123.733C66.1194 126.247 66.6543 129.67 66.6543 129.67" stroke="#EEEEEE" stroke-width="3" stroke-miterlimit="10" stroke-linecap="round"/>
<path d="M68.5293 121.968L71.4177 129.403" stroke="#EEEEEE" stroke-width="3" stroke-miterlimit="10" stroke-linecap="round"/>
<path d="M64.9433 113.784C58.8989 112.447 58.3105 103.567 58.3105 103.567" stroke="#EEEEEE" stroke-width="3.02822" stroke-miterlimit="10" stroke-linecap="round"/>
<path d="M48.0391 85.3274C52.5857 97.3091 58.3626 102.284 58.3626 102.284" stroke="#EEEEEE" stroke-width="4.84515" stroke-miterlimit="10" stroke-linecap="round"/>
<path d="M71.7363 114.586C75.6411 111.109 76.176 104.851 76.3899 102.926" stroke="#EEEEEE" stroke-width="3.02822" stroke-miterlimit="10" stroke-linecap="round"/>
</svg>
