<svg width="97" height="23" viewBox="0 0 97 23" fill="none" xmlns="http://www.w3.org/2000/svg">
<path d="M19.2285 5.58831H22.3756V17.8785H19.2285V5.58831Z" fill="#3C3C3B"/>
<path d="M24.5864 8.90103H27.7335V17.8785H24.5864V8.90103ZM26.16 7.90722C25.5858 7.90722 25.122 7.7471 24.7686 7.42687C24.4153 7.10664 24.2386 6.70912 24.2386 6.23429C24.2386 5.75947 24.4153 5.36194 24.7686 5.04171C25.122 4.72149 25.5858 4.56137 26.16 4.56137C26.7342 4.56137 27.198 4.71596 27.5513 5.02515C27.9047 5.3233 28.0814 5.70978 28.0814 6.1846C28.0814 6.68151 27.9047 7.0956 27.5513 7.42687C27.198 7.7471 26.7342 7.90722 26.16 7.90722Z" fill="#3C3C3B"/>
<path d="M34.019 14.7314L33.0915 15.6755V17.8785H29.9444V5.58831H33.0915V12.0316L36.3048 8.90103H40.0316L36.3048 12.7438L40.3463 17.8785H36.5367L34.019 14.7314Z" fill="#3C3C3B"/>
<path d="M45.1296 8.75196C46.6203 8.75196 47.7577 9.09427 48.5417 9.7789C49.3257 10.4525 49.7177 11.4905 49.7177 12.8929V17.8785H46.7859V16.719C46.3332 17.5914 45.4498 18.0276 44.1358 18.0276C43.4401 18.0276 42.8383 17.9061 42.3303 17.6632C41.8224 17.4202 41.4359 17.0945 41.1709 16.6859C40.9169 16.2663 40.7899 15.7915 40.7899 15.2614C40.7899 14.4112 41.1157 13.7542 41.7672 13.2904C42.4187 12.8156 43.4235 12.5781 44.7817 12.5781H46.5706C46.5154 11.6285 45.8805 11.1537 44.6658 11.1537C44.2351 11.1537 43.799 11.2255 43.3573 11.369C42.9156 11.5015 42.5401 11.6892 42.2309 11.9322L41.1709 9.79547C41.6678 9.46419 42.2696 9.21022 42.9763 9.03354C43.6941 8.84582 44.4118 8.75196 45.1296 8.75196ZM45.0136 16.0399C45.378 16.0399 45.6983 15.9516 45.9743 15.7749C46.2504 15.5982 46.4491 15.3387 46.5706 14.9964V14.2179H45.2124C44.2959 14.2179 43.8376 14.5216 43.8376 15.1289C43.8376 15.405 43.9425 15.6258 44.1523 15.7915C44.3621 15.9571 44.6492 16.0399 45.0136 16.0399Z" fill="#3C3C3B"/>
<path d="M54.8678 9.97766C55.188 9.5691 55.6021 9.26543 56.1101 9.06667C56.6291 8.85686 57.2198 8.75196 57.8824 8.75196V11.5843C57.5953 11.5512 57.3579 11.5346 57.1701 11.5346C56.4965 11.5346 55.9665 11.7168 55.58 12.0812C55.2046 12.4456 55.0169 13.0033 55.0169 13.7542V17.8785H51.8698V8.90103H54.8678V9.97766Z" fill="#3C3C3B"/>
<path d="M65.4485 8.66883C66.5638 8.66883 67.4582 9.00011 68.1318 9.66265C68.8164 10.3252 69.1588 11.3245 69.1588 12.6607V17.7954H66.0117V13.1741C66.0117 11.9484 65.5203 11.3356 64.5375 11.3356C63.9964 11.3356 63.5603 11.5122 63.229 11.8656C62.9088 12.219 62.7486 12.749 62.7486 13.4557V17.7954H59.6016V5.50519H62.7486V9.64609C63.091 9.32586 63.494 9.08292 63.9578 8.91729C64.4216 8.75165 64.9185 8.66883 65.4485 8.66883Z" fill="#3C3C3B"/>
<path d="M80.2746 13.3232C80.2746 13.3453 80.258 13.6048 80.2249 14.1017H73.6989C73.8314 14.5655 74.0853 14.9243 74.4608 15.1783C74.8473 15.4213 75.3276 15.5427 75.9018 15.5427C76.3325 15.5427 76.7024 15.482 77.0116 15.3605C77.3318 15.2391 77.652 15.0403 77.9723 14.7642L79.6286 16.4868C78.7563 17.4586 77.4809 17.9444 75.8024 17.9444C74.7534 17.9444 73.8314 17.7457 73.0363 17.3482C72.2413 16.9506 71.6229 16.3985 71.1812 15.6918C70.7505 14.9851 70.5352 14.1845 70.5352 13.2901C70.5352 12.4067 70.745 11.6172 71.1646 10.9215C71.5953 10.2148 72.186 9.66265 72.9369 9.26512C73.6878 8.8676 74.5326 8.66883 75.4712 8.66883C76.3656 8.66883 77.1772 8.85655 77.906 9.232C78.6348 9.59639 79.209 10.132 79.6286 10.8387C80.0593 11.5343 80.2746 12.3625 80.2746 13.3232ZM75.4877 10.9049C75.0019 10.9049 74.5933 11.0429 74.262 11.319C73.9418 11.5951 73.7375 11.9705 73.6492 12.4453H77.3263C77.2379 11.9705 77.0281 11.5951 76.6969 11.319C76.3766 11.0429 75.9736 10.9049 75.4877 10.9049Z" fill="#3C3C3B"/>
<path d="M92.2348 8.66883C93.0519 8.66883 93.7918 8.86208 94.4543 9.24856C95.1279 9.624 95.6579 10.1651 96.0444 10.8718C96.442 11.5675 96.6407 12.3791 96.6407 13.3066C96.6407 14.2342 96.442 15.0513 96.0444 15.758C95.6579 16.4537 95.1279 16.9948 94.4543 17.3813C93.7918 17.7567 93.0519 17.9444 92.2348 17.9444C91.1858 17.9444 90.3521 17.6297 89.7337 17.0003V21.0087H86.5866V8.81791H89.5846V9.71234C90.1699 9.01667 91.0533 8.66883 92.2348 8.66883ZM91.5723 15.4433C92.1244 15.4433 92.5771 15.2556 92.9305 14.8802C93.2838 14.4937 93.4605 13.9692 93.4605 13.3066C93.4605 12.6441 93.2838 12.1251 92.9305 11.7497C92.5771 11.3632 92.1244 11.1699 91.5723 11.1699C91.0201 11.1699 90.5674 11.3632 90.214 11.7497C89.8607 12.1251 89.684 12.6441 89.684 13.3066C89.684 13.9692 89.8607 14.4937 90.214 14.8802C90.5674 15.2556 91.0201 15.4433 91.5723 15.4433Z" fill="#3C3C3B"/>
<path fill-rule="evenodd" clip-rule="evenodd" d="M84.9482 5.66458H81.4824L81.702 14.1301H84.7287L84.9482 5.66458ZM84.7122 14.7675H81.7185L81.8011 17.9548H84.6295L84.7122 14.7675Z" fill="#3C3C3B"/>
<path d="M6.89673 0.748169H12.9074L6.1454 22.1611H0.134766L6.89673 0.748169Z" fill="#B54A57"/>
</svg>
