<svg width="102" height="23" viewBox="0 0 102 23" fill="none" xmlns="http://www.w3.org/2000/svg">
<path d="M20.0625 5.08585H23.3694V18H20.0625V5.08585Z" fill="white"/>
<path d="M25.6925 8.56676H28.9993V18H25.6925V8.56676ZM27.3459 7.52249C26.7425 7.52249 26.2552 7.35424 25.8839 7.01775C25.5126 6.68127 25.327 6.26356 25.327 5.76463C25.327 5.2657 25.5126 4.84799 25.8839 4.51151C26.2552 4.17502 26.7425 4.00677 27.3459 4.00677C27.9492 4.00677 28.4366 4.16922 28.8079 4.4941C29.1792 4.80738 29.3648 5.21349 29.3648 5.71242C29.3648 6.23455 29.1792 6.66966 28.8079 7.01775C28.4366 7.35424 27.9492 7.52249 27.3459 7.52249Z" fill="white"/>
<path d="M35.6039 14.6931L34.6293 15.6852V18H31.3224V5.08585H34.6293V11.8562L38.0057 8.56676H41.9217L38.0057 12.6046L42.2524 18H38.2494L35.6039 14.6931Z" fill="white"/>
<path d="M47.2785 8.41012C48.8449 8.41012 50.04 8.76981 50.8639 9.4892C51.6877 10.197 52.0996 11.2877 52.0996 12.7612V18H49.019V16.7817C48.5433 17.6983 47.615 18.1566 46.2343 18.1566C45.5033 18.1566 44.8709 18.029 44.3372 17.7737C43.8034 17.5185 43.3973 17.1762 43.1189 16.7469C42.852 16.306 42.7185 15.807 42.7185 15.2501C42.7185 14.3567 43.0608 13.6663 43.7454 13.179C44.43 12.68 45.4859 12.4306 46.913 12.4306H48.7927C48.7347 11.4327 48.0675 10.9338 46.7912 10.9338C46.3387 10.9338 45.8804 11.0092 45.4162 11.16C44.9521 11.2993 44.5576 11.4965 44.2327 11.7518L43.1189 9.5066C43.641 9.15851 44.2734 8.89164 45.0159 8.70599C45.7701 8.50874 46.5243 8.41012 47.2785 8.41012ZM47.1567 16.0681C47.5396 16.0681 47.8761 15.9753 48.1662 15.7896C48.4562 15.604 48.6651 15.3313 48.7927 14.9716V14.1536H47.3656C46.4025 14.1536 45.921 14.4727 45.921 15.1109C45.921 15.4009 46.0312 15.633 46.2517 15.807C46.4721 15.9811 46.7738 16.0681 47.1567 16.0681Z" fill="white"/>
<path d="M57.5112 9.69805C57.8476 9.26874 58.2828 8.94966 58.8165 8.7408C59.3618 8.52034 59.9826 8.41012 60.6788 8.41012V11.3863C60.3771 11.3515 60.1276 11.3341 59.9304 11.3341C59.2226 11.3341 58.6657 11.5255 58.2596 11.9084C57.8651 12.2913 57.6678 12.8773 57.6678 13.6663V18H54.3609V8.56676H57.5112V9.69805Z" fill="white"/>
<path d="M68.6301 8.3228C69.802 8.3228 70.7419 8.67089 71.4496 9.36707C72.169 10.0632 72.5287 11.1133 72.5287 12.5173V17.9127H69.2219V13.0568C69.2219 11.7689 68.7055 11.1249 67.6729 11.1249C67.1043 11.1249 66.646 11.3106 66.2979 11.6819C65.9614 12.0532 65.7932 12.6101 65.7932 13.3527V17.9127H62.4863V4.99854H65.7932V9.34966C66.1529 9.01318 66.5764 8.75791 67.0637 8.58386C67.551 8.40982 68.0732 8.3228 68.6301 8.3228Z" fill="white"/>
<path d="M84.2089 13.2135C84.2089 13.2367 84.1915 13.5093 84.1567 14.0315H77.2993C77.4386 14.5188 77.7054 14.8959 78.0999 15.1628C78.506 15.418 79.0108 15.5457 79.6141 15.5457C80.0666 15.5457 80.4553 15.4819 80.7802 15.3542C81.1167 15.2266 81.4532 15.0177 81.7897 14.7277L83.5301 16.5377C82.6135 17.5588 81.2734 18.0693 79.5097 18.0693C78.4074 18.0693 77.4386 17.8605 76.6032 17.4428C75.7677 17.0251 75.118 16.4449 74.6538 15.7023C74.2013 14.9597 73.9751 14.1185 73.9751 13.1787C73.9751 12.2504 74.1955 11.4208 74.6364 10.6898C75.089 9.94722 75.7097 9.36707 76.4987 8.94936C77.2877 8.53165 78.1754 8.3228 79.1616 8.3228C80.1015 8.3228 80.9543 8.52005 81.7201 8.91455C82.4859 9.29745 83.0892 9.86019 83.5301 10.6028C83.9827 11.3338 84.2089 12.204 84.2089 13.2135ZM79.179 10.6724C78.6685 10.6724 78.2392 10.8174 77.8911 11.1075C77.5546 11.3976 77.3399 11.7921 77.2471 12.291H81.1109C81.0181 11.7921 80.7976 11.3976 80.4495 11.1075C80.1131 10.8174 79.6896 10.6724 79.179 10.6724Z" fill="white"/>
<path d="M96.7763 8.3228C97.635 8.3228 98.4124 8.52585 99.1085 8.93195C99.8163 9.32646 100.373 9.895 100.779 10.6376C101.197 11.3686 101.406 12.2214 101.406 13.1961C101.406 14.1707 101.197 15.0293 100.779 15.7719C100.373 16.5029 99.8163 17.0715 99.1085 17.4776C98.4124 17.8721 97.635 18.0693 96.7763 18.0693C95.674 18.0693 94.798 17.7386 94.1483 17.0773V21.2892H90.8414V8.47944H93.9916V9.41928C94.6066 8.68829 95.5348 8.3228 96.7763 8.3228ZM96.0802 15.4412C96.6603 15.4412 97.136 15.244 97.5073 14.8495C97.8786 14.4434 98.0643 13.8922 98.0643 13.1961C98.0643 12.4999 97.8786 11.9545 97.5073 11.56C97.136 11.1539 96.6603 10.9509 96.0802 10.9509C95.5 10.9509 95.0243 11.1539 94.653 11.56C94.2817 11.9545 94.096 12.4999 94.096 13.1961C94.096 13.8922 94.2817 14.4434 94.653 14.8495C95.0243 15.244 95.5 15.4412 96.0802 15.4412Z" fill="white"/>
<path fill-rule="evenodd" clip-rule="evenodd" d="M89.1203 5.16602H85.4785L85.7092 14.0613H88.8896L89.1203 5.16602ZM88.8722 14.7311H85.7266L85.8134 18.0802H88.7854L88.8722 14.7311Z" fill="white"/>
<path d="M7.10526 0H13.4211L6.31579 22.5H0L7.10526 0Z" fill="#B54A57"/>
</svg>
