<svg width="144" height="206" viewBox="0 0 144 206" fill="none" xmlns="http://www.w3.org/2000/svg">
<g opacity="0.67">
<mask id="path-1-inside-1" fill="white">
<path fill-rule="evenodd" clip-rule="evenodd" d="M40 0C17.9086 0 0 17.9086 0 40V166C0 188.091 17.9086 206 40 206H104C126.091 206 144 188.091 144 166V40C144 17.9086 126.091 0 104 0H40ZM71 32C73.7614 32 76 29.7614 76 27C76 24.2386 73.7614 22 71 22C68.2386 22 66 24.2386 66 27C66 29.7614 68.2386 32 71 32Z"/>
</mask>
<path d="M5 40C5 20.67 20.67 5 40 5V-5C15.1472 -5 -5 15.1472 -5 40H5ZM5 166V40H-5V166H5ZM40 201C20.67 201 5 185.33 5 166H-5C-5 190.853 15.1472 211 40 211V201ZM104 201H40V211H104V201ZM139 166C139 185.33 123.33 201 104 201V211C128.853 211 149 190.853 149 166H139ZM139 40V166H149V40H139ZM104 5C123.33 5 139 20.67 139 40H149C149 15.1472 128.853 -5 104 -5V5ZM40 5H104V-5H40V5ZM71 27V37C76.5228 37 81 32.5228 81 27H71ZM71 27H81C81 21.4772 76.5228 17 71 17V27ZM71 27V17C65.4772 17 61 21.4772 61 27H71ZM71 27H61C61 32.5228 65.4772 37 71 37V27Z" fill="#BD5D69" mask="url(#path-1-inside-1)"/>
</g>
</svg>
