<svg width="24" height="22" viewBox="0 0 24 22" fill="none" xmlns="http://www.w3.org/2000/svg">
<g style="mix-blend-mode:luminosity">
<path d="M1.40074 10.8813C1.44173 10.4073 1.47154 9.9651 1.51999 9.52648C1.54235 9.33901 1.51253 9.17983 1.41564 9.00651C0.610705 7.62344 0.394564 6.15194 0.797033 4.61677C1.24795 2.9012 2.29884 1.58887 3.9348 0.761156C5.98441 -0.271724 8.06384 -0.250501 10.1135 0.80714C10.2737 0.888497 10.419 0.90972 10.5905 0.888497C13.2326 0.566606 15.6735 1.0972 17.8722 2.5121C20.1789 4.00129 21.6472 6.05643 22.2658 8.64217C22.5415 9.78471 22.5788 10.9414 22.4148 12.1016C22.3925 12.2537 22.3962 12.3917 22.4857 12.5402C23.3167 13.9304 23.544 15.4089 23.1453 16.9583C22.7018 18.688 21.6434 20.0109 19.9963 20.8422C17.9392 21.8786 15.8524 21.8468 13.8028 20.7785C13.6537 20.7007 13.5158 20.6901 13.3593 20.7078C11.7047 20.9165 10.0911 20.7714 8.51475 20.2479C6.42415 19.5546 4.72856 18.3519 3.42799 16.6541C2.42927 15.3736 1.80693 13.9268 1.5498 12.3457C1.47154 11.8505 1.44918 11.3482 1.40074 10.8813ZM12.0215 17.3368C12.6252 17.266 13.2326 17.2236 13.8288 17.121C14.6822 16.976 15.476 16.6647 16.1617 16.1553C17.3095 15.3028 17.7641 14.1674 17.615 12.8055C17.5144 11.8752 17.0523 11.1359 16.225 10.6336C15.789 10.3684 15.3195 10.1243 14.8313 9.97925C13.7319 9.65383 12.6102 9.39207 11.4923 9.1197C10.9333 8.98175 10.378 8.84026 9.88613 8.53252C9.3346 8.18586 9.15572 7.61283 9.46875 7.11054C9.68117 6.76742 10.024 6.56226 10.4041 6.41723C11.0153 6.18377 11.6525 6.18024 12.2935 6.22622C13.0686 6.27928 13.6723 6.62239 14.0897 7.24849C14.2611 7.50671 14.4139 7.78262 14.6077 8.02315C14.7642 8.21416 14.9468 8.41932 15.1667 8.5219C15.8449 8.83672 16.702 8.47238 16.948 7.79323C17.1418 7.26264 16.9666 6.7745 16.6908 6.32173C16.2138 5.53646 15.4611 5.05893 14.5928 4.7335C13.7729 4.42576 12.9121 4.32318 12.0401 4.31964C10.855 4.31256 9.69607 4.43991 8.61537 4.9422C7.44523 5.48693 6.68874 6.3288 6.58066 7.60929C6.48377 8.79427 6.95332 9.72103 7.97813 10.3967C8.6191 10.8211 9.34205 11.0723 10.0836 11.2668C10.8662 11.472 11.6637 11.6312 12.45 11.8222C12.9829 11.953 13.5195 12.0768 13.9928 12.3704C14.8909 12.9258 14.9617 14.0259 14.1456 14.6803C13.7133 15.0269 13.2177 15.2109 12.6661 15.2958C12.014 15.3948 11.3656 15.3948 10.7283 15.2179C10.0128 15.0163 9.53211 14.5529 9.20044 13.9304C9.01411 13.5802 8.83896 13.2158 8.60419 12.8975C8.29116 12.4695 7.81043 12.3669 7.29244 12.473C6.78563 12.5756 6.4316 12.8692 6.31981 13.3609C6.23037 13.7394 6.31981 14.1178 6.46887 14.468C6.8937 15.4691 7.63528 16.1978 8.64518 16.6753C9.70725 17.1705 10.8513 17.2943 12.0215 17.3368Z" fill="#00AFF0"/>
</g>
</svg>
